<mxfile host="app.diagrams.net" modified="2024-06-03T17:44:29.434Z" agent="Mozilla/5.0 (Macintosh; Intel Mac OS X 10_15_7) AppleWebKit/537.36 (KHTML, like Gecko) Chrome/124.0.0.0 Safari/537.36" etag="hMtpWU99OahLrht0EAeh" version="24.4.7" type="device">
  <diagram name="Страница — 1" id="F21xHUY6FI5C7ZQRnSVb">
    <mxGraphModel dx="856" dy="468" grid="1" gridSize="10" guides="1" tooltips="1" connect="1" arrows="1" fold="1" page="1" pageScale="1" pageWidth="827" pageHeight="1169" math="0" shadow="0">
      <root>
        <mxCell id="0" />
        <mxCell id="1" parent="0" />
        <mxCell id="RLjYxHIGPNp1jrxp-u3y-14" style="edgeStyle=orthogonalEdgeStyle;rounded=0;orthogonalLoop=1;jettySize=auto;html=1;exitX=0.5;exitY=0.5;exitDx=0;exitDy=0;exitPerimeter=0;" edge="1" parent="1" source="RLjYxHIGPNp1jrxp-u3y-3">
          <mxGeometry relative="1" as="geometry">
            <mxPoint x="160" y="300.4" as="targetPoint" />
          </mxGeometry>
        </mxCell>
        <mxCell id="RLjYxHIGPNp1jrxp-u3y-3" value="Actor" style="shape=umlActor;verticalLabelPosition=bottom;verticalAlign=top;html=1;outlineConnect=0;" vertex="1" parent="1">
          <mxGeometry x="80" y="240" width="60" height="120" as="geometry" />
        </mxCell>
        <mxCell id="RLjYxHIGPNp1jrxp-u3y-5" value="Выбрать ресторан" style="rounded=0;whiteSpace=wrap;html=1;" vertex="1" parent="1">
          <mxGeometry x="170" y="290" width="120" height="30" as="geometry" />
        </mxCell>
        <mxCell id="RLjYxHIGPNp1jrxp-u3y-15" value="Просмотреть меню" style="rounded=0;whiteSpace=wrap;html=1;" vertex="1" parent="1">
          <mxGeometry x="340" y="290" width="120" height="30" as="geometry" />
        </mxCell>
        <mxCell id="RLjYxHIGPNp1jrxp-u3y-16" style="edgeStyle=orthogonalEdgeStyle;rounded=0;orthogonalLoop=1;jettySize=auto;html=1;exitX=0.5;exitY=0.5;exitDx=0;exitDy=0;exitPerimeter=0;" edge="1" parent="1">
          <mxGeometry relative="1" as="geometry">
            <mxPoint x="340" y="305" as="targetPoint" />
            <mxPoint x="290" y="304.6" as="sourcePoint" />
            <Array as="points">
              <mxPoint x="330" y="304.6" />
              <mxPoint x="330" y="304.6" />
            </Array>
          </mxGeometry>
        </mxCell>
        <mxCell id="RLjYxHIGPNp1jrxp-u3y-24" style="edgeStyle=orthogonalEdgeStyle;rounded=0;orthogonalLoop=1;jettySize=auto;html=1;exitX=0.5;exitY=1;exitDx=0;exitDy=0;entryX=0.5;entryY=0;entryDx=0;entryDy=0;" edge="1" parent="1" source="RLjYxHIGPNp1jrxp-u3y-17" target="RLjYxHIGPNp1jrxp-u3y-20">
          <mxGeometry relative="1" as="geometry" />
        </mxCell>
        <mxCell id="RLjYxHIGPNp1jrxp-u3y-17" value="Добавить блюдо в корзину" style="rounded=0;whiteSpace=wrap;html=1;" vertex="1" parent="1">
          <mxGeometry x="508" y="290" width="120" height="30" as="geometry" />
        </mxCell>
        <mxCell id="RLjYxHIGPNp1jrxp-u3y-18" style="edgeStyle=orthogonalEdgeStyle;rounded=0;orthogonalLoop=1;jettySize=auto;html=1;exitX=0.5;exitY=0.5;exitDx=0;exitDy=0;exitPerimeter=0;" edge="1" parent="1">
          <mxGeometry relative="1" as="geometry">
            <mxPoint x="508" y="305" as="targetPoint" />
            <mxPoint x="458" y="304.6" as="sourcePoint" />
            <Array as="points">
              <mxPoint x="498" y="304.6" />
              <mxPoint x="498" y="304.6" />
            </Array>
          </mxGeometry>
        </mxCell>
        <mxCell id="RLjYxHIGPNp1jrxp-u3y-26" style="edgeStyle=orthogonalEdgeStyle;rounded=0;orthogonalLoop=1;jettySize=auto;html=1;entryX=1;entryY=0.5;entryDx=0;entryDy=0;" edge="1" parent="1" source="RLjYxHIGPNp1jrxp-u3y-20" target="RLjYxHIGPNp1jrxp-u3y-25">
          <mxGeometry relative="1" as="geometry" />
        </mxCell>
        <mxCell id="RLjYxHIGPNp1jrxp-u3y-20" value="Оформить заказ" style="rounded=0;whiteSpace=wrap;html=1;" vertex="1" parent="1">
          <mxGeometry x="508" y="380" width="120" height="30" as="geometry" />
        </mxCell>
        <mxCell id="RLjYxHIGPNp1jrxp-u3y-25" value="Оформить заказ" style="rounded=0;whiteSpace=wrap;html=1;" vertex="1" parent="1">
          <mxGeometry x="338" y="380" width="120" height="30" as="geometry" />
        </mxCell>
        <mxCell id="RLjYxHIGPNp1jrxp-u3y-27" style="edgeStyle=orthogonalEdgeStyle;rounded=0;orthogonalLoop=1;jettySize=auto;html=1;entryX=1;entryY=0.5;entryDx=0;entryDy=0;" edge="1" parent="1" target="RLjYxHIGPNp1jrxp-u3y-28">
          <mxGeometry relative="1" as="geometry">
            <mxPoint x="341" y="395" as="sourcePoint" />
          </mxGeometry>
        </mxCell>
        <mxCell id="RLjYxHIGPNp1jrxp-u3y-30" style="edgeStyle=orthogonalEdgeStyle;rounded=0;orthogonalLoop=1;jettySize=auto;html=1;entryX=0.5;entryY=0;entryDx=0;entryDy=0;" edge="1" parent="1" source="RLjYxHIGPNp1jrxp-u3y-28" target="RLjYxHIGPNp1jrxp-u3y-29">
          <mxGeometry relative="1" as="geometry" />
        </mxCell>
        <mxCell id="RLjYxHIGPNp1jrxp-u3y-28" value="Отслеживать заказ" style="rounded=0;whiteSpace=wrap;html=1;" vertex="1" parent="1">
          <mxGeometry x="171" y="380" width="120" height="30" as="geometry" />
        </mxCell>
        <mxCell id="RLjYxHIGPNp1jrxp-u3y-32" style="edgeStyle=orthogonalEdgeStyle;rounded=0;orthogonalLoop=1;jettySize=auto;html=1;exitX=1;exitY=0.5;exitDx=0;exitDy=0;entryX=0;entryY=0.5;entryDx=0;entryDy=0;" edge="1" parent="1" source="RLjYxHIGPNp1jrxp-u3y-29" target="RLjYxHIGPNp1jrxp-u3y-31">
          <mxGeometry relative="1" as="geometry" />
        </mxCell>
        <mxCell id="RLjYxHIGPNp1jrxp-u3y-29" value="Внести оплату" style="rounded=0;whiteSpace=wrap;html=1;" vertex="1" parent="1">
          <mxGeometry x="170" y="450" width="120" height="30" as="geometry" />
        </mxCell>
        <mxCell id="RLjYxHIGPNp1jrxp-u3y-31" value="Оставить отзыв" style="rounded=0;whiteSpace=wrap;html=1;" vertex="1" parent="1">
          <mxGeometry x="338" y="450" width="120" height="30" as="geometry" />
        </mxCell>
      </root>
    </mxGraphModel>
  </diagram>
</mxfile>
